<?xml version="1.0" encoding="UTF-8"?>
<svg version="1.1" xmlns="http://www.w3.org/2000/svg" width="128" height="128">
<path d="M0 0 C0.73863281 -0.04898437 1.47726563 -0.09796875 2.23828125 -0.1484375 C7.09897536 0.89037113 9.70695668 3.91828183 12.37719727 7.88525391 C14.25445522 11.01532245 16.04497226 14.18168961 17.8125 17.375 C18.46465944 18.53892558 19.11774727 19.70233144 19.77172852 20.86523438 C20.76855629 22.63798499 21.76446709 24.41117475 22.75556946 26.18713379 C24.87442365 29.97414188 27.07198351 33.70202494 29.33203125 37.40625 C30.16806885 38.79650391 30.16806885 38.79650391 31.02099609 40.21484375 C32.05857423 41.93561261 33.11137022 43.64733578 34.18212891 45.34765625 C37.50674527 50.94749568 39.07061884 55.85956217 37.6875 62.375 C35.89892084 66.10023875 33.43725463 68.02595948 29.68359375 69.7734375 C28.50925781 70.09570312 27.33492188 70.41796875 26.125 70.75 C25.46677246 70.93715576 24.80854492 71.12431152 24.13037109 71.31713867 C22.5875272 71.75402149 21.04202083 72.18156047 19.49462891 72.60205078 C16.14680958 73.52388032 12.81424012 74.493451 9.48046875 75.46484375 C4.47117902 76.91873069 -0.53852635 78.3707338 -5.5546875 79.80078125 C-7.14579346 80.25578003 -7.14579346 80.25578003 -8.76904297 80.7199707 C-11.3125 81.375 -11.3125 81.375 -13.3125 81.375 C-12.79558594 82.2928125 -12.27867188 83.210625 -11.74609375 84.15625 C-5.67796409 95.29633988 -5.67796409 95.29633988 -6.0625 99.875 C-7.92653503 105.09429808 -10.47685371 108.09431654 -15 111.25 C-19.56026359 112.79876876 -23.55026529 113.15441648 -28.3125 112.375 C-33.47887228 109.53856032 -34.83867047 106.30218563 -37.375 101.0625 C-38.99620541 97.83422755 -38.99620541 97.83422755 -41.3125 95.375 C-44.78978848 94.6101744 -47.61714366 94.79983975 -51.15234375 95.13671875 C-56.65850228 95.55189263 -60.36370414 93.59866252 -65 90.6875 C-70.68079833 85.00670167 -74.22967272 78.26609032 -74.34375 70.15234375 C-73.86886749 63.23093121 -71.62862003 57.2365172 -66.5 52.4375 C-64.20774091 50.59122438 -61.98696678 49.20618901 -59.3671875 47.84765625 C-46.57344316 41.0787065 -37.30020706 30.8003742 -27.37017822 20.49066162 C-24.04852087 17.06490059 -20.59426354 13.87966813 -16.95922852 10.79248047 C-14.14407874 8.36923961 -11.63214125 5.6641971 -9.07421875 2.9765625 C-6.33165746 0.48332497 -3.57652316 0.1606038 0 0 Z M-4.49731445 10.89453125 C-5.2162085 11.65121094 -5.93510254 12.40789063 -6.67578125 13.1875 C-7.48080078 14.01636719 -8.28582031 14.84523438 -9.11523438 15.69921875 C-9.94345703 16.58222656 -10.77167969 17.46523438 -11.625 18.375 C-13.26449634 20.08566627 -14.90639625 21.79403245 -16.55078125 23.5 C-17.3502417 24.33160645 -18.14970215 25.16321289 -18.97338867 26.02001953 C-22.26214504 29.33108768 -25.76355167 32.34947684 -29.3125 35.375 C-31.20454672 37.05043595 -33.04129994 38.75868483 -34.875 40.5 C-36.17630859 41.71042969 -36.17630859 41.71042969 -37.50390625 42.9453125 C-39.58305721 45.17952527 -39.58305721 45.17952527 -39.12304688 47.66821289 C-38.18165041 50.81196669 -36.82767461 53.290877 -35.15234375 56.11328125 C-34.52392578 57.17998047 -33.89550781 58.24667969 -33.24804688 59.34570312 C-32.58869141 60.44849609 -31.92933594 61.55128906 -31.25 62.6875 C-30.58677734 63.80962891 -29.92355469 64.93175781 -29.24023438 66.08789062 C-27.60403398 68.8541287 -25.96128136 71.6162485 -24.3125 74.375 C-18.12231516 73.76352998 -12.41754804 72.44886996 -6.44921875 70.72265625 C-5.53541946 70.46246201 -4.62162018 70.20226776 -3.68013 69.93418884 C-1.76240428 69.38651475 0.15448258 68.83589555 2.07055664 68.2824707 C5.00627055 67.43569132 7.94524501 66.60103453 10.88476562 65.76757812 C12.75281003 65.23248901 14.62065587 64.69670606 16.48828125 64.16015625 C17.80545891 63.78661766 17.80545891 63.78661766 19.14924622 63.40553284 C19.96406967 63.16866257 20.77889313 62.9317923 21.6184082 62.68774414 C22.69140923 62.37916222 22.69140923 62.37916222 23.78608704 62.06434631 C25.971971 61.35716464 25.971971 61.35716464 28.6875 59.375 C28.15010093 54.61270116 26.80648687 51.32277897 24.40625 47.19140625 C24.07663773 46.61819641 23.74702545 46.04498657 23.40742493 45.45440674 C22.34347774 43.60982197 21.26634909 41.77340255 20.1875 39.9375 C19.45222692 38.67500924 18.71744618 37.41223162 17.9831543 36.14916992 C16.54233969 33.67401359 15.09586023 31.20228609 13.64599609 28.73242188 C12.00213258 25.91437013 10.39029299 23.08324669 8.80078125 20.234375 C8.03417224 18.88523588 7.26728076 17.5362572 6.5 16.1875 C5.86707031 15.05957031 5.23414063 13.93164062 4.58203125 12.76953125 C2.90406394 10.22733512 2.90406394 10.22733512 0.34179688 9.48706055 C-2.39214688 9.10347473 -2.39214688 9.10347473 -4.49731445 10.89453125 Z M-60.3125 59.375 C-63.68826395 62.77583151 -65.21665017 66.5825085 -65.3125 71.375 C-64.06089577 77.93604113 -60.69175074 81.62896756 -55.3125 85.375 C-52.20947349 86.92651326 -49.75307126 86.62700522 -46.3125 86.375 C-43.68979432 85.45518208 -41.30868654 84.20902077 -38.875 82.875 C-38.23884766 82.54113281 -37.60269531 82.20726563 -36.94726562 81.86328125 C-35.39556893 81.04659878 -33.85302429 80.2125666 -32.3125 79.375 C-34.09162575 74.39947883 -36.67894726 69.90923067 -39.25 65.3125 C-39.69279297 64.51005859 -40.13558594 63.70761719 -40.59179688 62.88085938 C-41.02427734 62.10419922 -41.45675781 61.32753906 -41.90234375 60.52734375 C-42.29284912 59.82601318 -42.68335449 59.12468262 -43.08569336 58.40209961 C-44.38032162 56.26293573 -45.69525232 54.28415031 -47.3125 52.375 C-51.99087624 52.375 -56.66150965 56.70156772 -60.3125 59.375 Z M-28.9375 86.875 C-29.75476562 87.3390625 -30.57203125 87.803125 -31.4140625 88.28125 C-32.04054687 88.6421875 -32.66703125 89.003125 -33.3125 89.375 C-32.54682134 90.96083248 -31.77472035 92.54356494 -31 94.125 C-30.57074219 95.00671875 -30.14148437 95.8884375 -29.69921875 96.796875 C-28.39929811 99.21362887 -27.11211886 101.30472606 -25.3125 103.375 C-22.89905333 104.04243877 -22.89905333 104.04243877 -20.3125 103.375 C-17.5219183 101.47683458 -17.5219183 101.47683458 -15.3125 99.375 C-16.85795146 93.89567211 -19.46793212 89.26070819 -22.3125 84.375 C-25.05501195 84.375 -26.56755845 85.52074768 -28.9375 86.875 Z " fill="#FFFFFF" transform="translate(82.3125,7.625)"/>
</svg>
