<?xml version="1.0" encoding="UTF-8"?>
<svg version="1.1" xmlns="http://www.w3.org/2000/svg" width="128" height="128">
<path d="M0 0 C7.53515862 0.08161112 14.81373607 2.00061532 22.0625 3.87109375 C23.17560547 4.15348404 24.28871094 4.43587433 25.43554688 4.7268219 C27.76930207 5.32090911 30.10213902 5.91861425 32.43408203 6.51977539 C36.01460121 7.44125777 39.59878868 8.34730521 43.18359375 9.25195312 C45.45596309 9.83241834 47.728107 10.41376697 50 10.99609375 C51.61080444 11.40244301 51.61080444 11.40244301 53.25415039 11.81700134 C54.73709595 12.20233788 54.73709595 12.20233788 56.25 12.59545898 C57.12140625 12.81894516 57.9928125 13.04243134 58.890625 13.27268982 C61 14 61 14 63 16 C63.26075939 23.16837855 61.08721443 30.3899867 59.27734375 37.2578125 C59.01240616 38.28687714 58.74746857 39.31594177 58.47450256 40.37619019 C57.6357305 43.62762404 56.78679971 46.87630203 55.9375 50.125 C55.36325581 52.34357501 54.78968156 54.56232354 54.21679688 56.78125 C52.81893453 62.18952961 51.41274645 67.59559045 50 73 C51.485 73.495 51.485 73.495 53 74 C54.19579083 76.39158166 54.13933042 77.89973906 54.16113281 80.56982422 C54.17074036 81.51775848 54.1803479 82.46569275 54.19024658 83.44235229 C54.19449646 84.46942291 54.19874634 85.49649353 54.203125 86.5546875 C54.20882507 87.60778107 54.21452515 88.66087463 54.22039795 89.74588013 C54.2298557 91.97689812 54.236385 94.20793013 54.24023438 96.43896484 C54.24994057 99.85408876 54.28095737 103.26861116 54.3125 106.68359375 C54.31902983 108.84895475 54.32428038 111.01432007 54.328125 113.1796875 C54.3466452 114.71422073 54.3466452 114.71422073 54.36553955 116.27975464 C54.36253845 117.23399323 54.35953735 118.18823181 54.35644531 119.17138672 C54.36191376 120.4280867 54.36191376 120.4280867 54.36749268 121.71017456 C53.88391527 124.72331719 53.30081661 125.96334165 51 128 C48.31985945 128.40303812 46.04546841 128.54722411 43.36328125 128.51757812 C42.5873764 128.5245874 41.81147156 128.53159668 41.01205444 128.53881836 C38.44517311 128.55643555 35.8793927 128.54476308 33.3125 128.53125 C31.53035266 128.53394386 29.74820675 128.53782539 27.96606445 128.54284668 C24.23016371 128.54874675 20.49464538 128.54016256 16.75878906 128.52148438 C11.96657371 128.49869434 7.17525436 128.51181473 2.3830719 128.53577423 C-1.29722869 128.55021858 -4.97731634 128.54563253 -8.65762329 128.53526306 C-10.42469386 128.53259199 -12.19178368 128.53587888 -13.95883179 128.54518127 C-16.42750354 128.55532474 -18.89471823 128.53987834 -21.36328125 128.51757812 C-22.09584137 128.52567505 -22.82840149 128.53377197 -23.5831604 128.54211426 C-26.71458909 128.48962619 -28.54258412 128.39636944 -30.95303345 126.30761719 C-32.2046144 123.54900975 -32.38062222 121.58956352 -32.38818359 118.56054688 C-32.39764008 117.47261841 -32.40709656 116.38468994 -32.4168396 115.26379395 C-32.41076691 114.09392944 -32.40469421 112.92406494 -32.3984375 111.71875 C-32.40130768 110.51311401 -32.40417786 109.30747803 -32.40713501 108.06530762 C-32.40917619 105.51667816 -32.40364264 102.96803307 -32.39111328 100.41943359 C-32.37506144 96.51494365 -32.39096126 92.61148894 -32.41015625 88.70703125 C-32.40817383 86.23176854 -32.40433018 83.75650648 -32.3984375 81.28125 C-32.40451019 80.1113855 -32.41058289 78.941521 -32.4168396 77.73620605 C-32.40738312 76.64827759 -32.39792664 75.56034912 -32.38818359 74.43945312 C-32.38579681 73.4833313 -32.38341003 72.52720947 -32.38095093 71.54211426 C-31.93654954 68.57659031 -30.86155384 67.29275432 -29 65 C-29.12046223 62.64182193 -29.12046223 62.64182193 -30.01953125 60.17578125 C-30.32068848 59.20592285 -30.6218457 58.23606445 -30.93212891 57.23681641 C-31.28452637 56.16866699 -31.63692383 55.10051758 -32 54 C-32.75403669 51.59769719 -33.50793663 49.19535145 -34.26171875 46.79296875 C-35.78176678 42.01289316 -35.78176678 42.01289316 -37.31958008 37.23852539 C-37.93312585 35.34252338 -38.53506329 33.44277736 -39.13671875 31.54296875 C-39.49467529 30.42946045 -39.85263184 29.31595215 -40.22143555 28.16870117 C-41.00398129 24.98379644 -41.14674485 22.2649959 -41 19 C-33.06254147 16.0453248 -25.06547674 13.33324878 -17 10.75 C-15.88238281 10.38648438 -14.76476562 10.02296875 -13.61328125 9.6484375 C-12.54464844 9.30554687 -11.47601563 8.96265625 -10.375 8.609375 C-9.41335937 8.29967773 -8.45171875 7.98998047 -7.4609375 7.67089844 C-5 7 -5 7 -2 7 C-1.855625 6.030625 -1.71125 5.06125 -1.5625 4.0625 C-1 1 -1 1 0 0 Z M3 5 C2.49411853 6.91512272 1.99551609 8.83216922 1.5 10.75 C1.2215625 11.81734375 0.943125 12.8846875 0.65625 13.984375 C-0.14175989 17.13705302 -0.14175989 17.13705302 0 21 C21.78 21.495 21.78 21.495 44 22 C44.33 37.18 44.66 52.36 45 68 C46.55049395 64.89901211 47.44592601 62.68895743 48.23681641 59.41503906 C48.45689362 58.51440735 48.67697083 57.61377563 48.90371704 56.68585205 C49.13400604 55.72217712 49.36429504 54.7585022 49.6015625 53.765625 C49.9635524 52.27588165 49.9635524 52.27588165 50.33285522 50.75604248 C51.10144291 47.58844088 51.86330077 44.41926432 52.625 41.25 C53.14539044 39.10015316 53.66621858 36.95041222 54.1875 34.80078125 C55.46341195 29.53507175 56.73380454 24.26805387 58 19 C51.59485643 16.75550005 45.15264131 14.93067073 38.56640625 13.30078125 C37.60725815 13.0608696 36.64811005 12.82095795 35.65989685 12.57377625 C33.65104769 12.07214498 31.64176861 11.57223246 29.63208008 11.07397461 C26.54589559 10.30838092 23.4613524 9.53642287 20.37695312 8.76367188 C18.41936414 8.27566723 16.46168503 7.78802391 14.50390625 7.30078125 C13.58001602 7.06958084 12.65612579 6.83838043 11.70423889 6.60017395 C10.85252609 6.38962875 10.00081329 6.17908356 9.12329102 5.9621582 C7.99818871 5.6826104 7.99818871 5.6826104 6.85035706 5.39741516 C4.98952438 4.93000372 4.98952438 4.93000372 3 5 Z M-12.5390625 14.96875 C-13.17991791 15.1685144 -13.82077332 15.36827881 -14.48104858 15.57409668 C-16.5298711 16.21341545 -18.57743749 16.85665854 -20.625 17.5 C-22.01293996 17.93385256 -23.40095984 18.36744953 -24.7890625 18.80078125 C-28.19364108 19.8642221 -31.59710385 20.93118614 -35 22 C-34.42938915 27.76856344 -33.28514924 32.93400886 -31.49609375 38.4375 C-31.13198143 39.58581299 -31.13198143 39.58581299 -30.76051331 40.75732422 C-29.99268959 43.17368383 -29.21528087 45.58682934 -28.4375 48 C-27.91146952 49.64953567 -27.38607282 51.2992736 -26.86132812 52.94921875 C-25.58152928 56.96851974 -24.29313195 60.98496983 -23 65 C-22.34 65 -21.68 65 -21 65 C-20.67 51.14 -20.34 37.28 -20 23 C-17.29816945 21.64908472 -14.88191794 21.66141942 -11.875 21.4375 C-10.77929688 21.35371094 -9.68359375 21.26992188 -8.5546875 21.18359375 C-7.71164063 21.12300781 -6.86859375 21.06242187 -6 21 C-5.34 18.36 -4.68 15.72 -4 13 C-7.03656271 13 -9.64607605 14.06311946 -12.5390625 14.96875 Z M-16 26 C-16 38.87 -16 51.74 -16 65 C-9.07 65.495 -9.07 65.495 -2 66 C-1.34 67.32 -0.68 68.64 0 70 C1.96814623 72.40991818 1.96814623 72.40991818 5.71533203 72.22705078 C7.31286047 72.22655015 8.91041134 72.21548451 10.5078125 72.1953125 C11.62530884 72.19229126 11.62530884 72.19229126 12.76538086 72.18920898 C15.55198308 72.1787341 18.33849764 72.15081152 21.125 72.125 C27.35375 72.08375 33.5825 72.0425 40 72 C40 56.82 40 41.64 40 26 C21.52 26 3.04 26 -16 26 Z M-27 71 C-27.09854422 72.5906331 -27.12798694 74.18561477 -27.12939453 75.77929688 C-27.13254669 76.797052 -27.13569885 77.81480713 -27.13894653 78.86340332 C-27.1369223 79.97066772 -27.13489807 81.07793213 -27.1328125 82.21875 C-27.13376923 83.34696167 -27.13472595 84.47517334 -27.13571167 85.63757324 C-27.13639368 88.02840226 -27.13453797 90.41923311 -27.13037109 92.81005859 C-27.12502316 96.48409151 -27.13031543 100.15800217 -27.13671875 103.83203125 C-27.13605797 106.14843777 -27.13477682 108.46484422 -27.1328125 110.78125 C-27.13483673 111.8885144 -27.13686096 112.99577881 -27.13894653 114.13659668 C-27.13579437 115.15435181 -27.13264221 116.17210693 -27.12939453 117.22070312 C-27.12859894 118.12147583 -27.12780334 119.02224854 -27.12698364 119.95031738 C-27.22744606 121.99323069 -27.22744606 121.99323069 -26 123 C-23.65746218 123.09492722 -21.34453896 123.12559791 -19.00170898 123.11352539 C-18.27004517 123.11367142 -17.53838135 123.11381744 -16.7845459 123.1139679 C-14.35503216 123.11326867 -11.92559417 123.10547585 -9.49609375 123.09765625 C-7.81600486 123.0957921 -6.13591543 123.09436819 -4.45582581 123.09336853 C-0.02526357 123.08954307 4.4052661 123.07971256 8.83581543 123.06866455 C13.35342976 123.05845103 17.87104934 123.05387104 22.38867188 123.04882812 C31.25912893 123.03809031 40.12956176 123.02101356 49 123 C49.02527062 116.60962769 49.04283317 110.21926817 49.05493164 103.82885742 C49.05997308 101.65307127 49.06680607 99.47728853 49.07543945 97.30151367 C49.08751338 94.18146933 49.09323005 91.06146962 49.09765625 87.94140625 C49.10281754 86.96224747 49.10797882 85.98308868 49.11329651 84.97425842 C49.11340981 83.62297096 49.11340981 83.62297096 49.11352539 82.24438477 C49.115746 81.44718521 49.11796661 80.64998566 49.12025452 79.82862854 C49.20050456 77.98077719 49.20050456 77.98077719 48 77 C46.49157294 76.90869375 44.97895462 76.8853707 43.46777344 76.88989258 C42.02056915 76.88902397 42.02056915 76.88902397 40.54412842 76.88813782 C39.49315979 76.89024765 38.44219116 76.89235748 37.359375 76.89453125 C35.15233399 76.88107318 32.94530206 76.86604966 30.73828125 76.84960938 C27.24431022 76.82677457 23.75136011 76.81249515 20.25732422 76.82495117 C16.89475567 76.83375869 13.53423212 76.80487969 10.171875 76.76953125 C8.60756744 76.78787773 8.60756744 76.78787773 7.01165771 76.80659485 C-0.17918668 76.68638193 -0.17918668 76.68638193 -2.63238525 74.63496399 C-3.79636391 73.12095153 -4.90133401 71.56205412 -6 70 C-8.36396772 69.17605296 -8.36396772 69.17605296 -10.828125 69.37890625 C-11.70984375 69.39373047 -12.5915625 69.40855469 -13.5 69.42382812 C-14.4075 69.46958984 -15.315 69.51535156 -16.25 69.5625 C-17.63445313 69.59053711 -17.63445313 69.59053711 -19.046875 69.61914062 C-23.35872171 69.375573 -23.35872171 69.375573 -27 71 Z " fill="#FFFFFF" transform="translate(53,0)"/>
<path d="M0 0 C1.16660156 0.00322266 2.33320312 0.00644531 3.53515625 0.00976562 C4.70175781 -0.00634766 5.86835937 -0.02246094 7.0703125 -0.0390625 C8.73900391 -0.0400293 8.73900391 -0.0400293 10.44140625 -0.04101562 C11.46556641 -0.04399658 12.48972656 -0.04697754 13.54492188 -0.05004883 C14.36669922 0.07281494 15.18847656 0.19567871 16.03515625 0.32226562 C18.4932725 4.00944 18.34633789 5.96572267 18.03515625 10.32226562 C17.04515625 11.80726562 17.04515625 11.80726562 16.03515625 13.32226562 C13.54492188 13.69458008 13.54492188 13.69458008 10.44140625 13.68554688 C9.32894531 13.68490234 8.21648438 13.68425781 7.0703125 13.68359375 C5.90371094 13.66748047 4.73710938 13.65136719 3.53515625 13.63476562 C1.78525391 13.63959961 1.78525391 13.63959961 0 13.64453125 C-8.69801157 13.5890978 -8.69801157 13.5890978 -10.96484375 11.32226562 C-11.23046875 9.22851562 -11.23046875 9.22851562 -11.21484375 6.82226562 C-11.22 6.02820313 -11.22515625 5.23414062 -11.23046875 4.41601562 C-10.48779116 -1.43803128 -4.52541291 0.02884099 0 0 Z M-5.96484375 5.32226562 C-5.96484375 6.31226562 -5.96484375 7.30226563 -5.96484375 8.32226562 C0.30515625 8.32226562 6.57515625 8.32226562 13.03515625 8.32226562 C13.03515625 7.33226563 13.03515625 6.34226562 13.03515625 5.32226562 C6.76515625 5.32226562 0.49515625 5.32226562 -5.96484375 5.32226562 Z " fill="#FFFFFF" transform="translate(41.96484375,104.677734375)"/>
<path d="M0 0 C14.85 0 29.7 0 45 0 C45.495 2.475 45.495 2.475 46 5 C30.82 5 15.64 5 0 5 C0 3.35 0 1.7 0 0 Z " fill="#FFFFFF" transform="translate(42,55)"/>
<path d="M0 0 C15.18 0 30.36 0 46 0 C45.67 1.65 45.34 3.3 45 5 C30.48 5 15.96 5 1 5 C0.67 3.35 0.34 1.7 0 0 Z " fill="#FFFFFF" transform="translate(42,44)"/>
<path d="M0 0 C9.57 0 19.14 0 29 0 C29.33 1.65 29.66 3.3 30 5 C19.77 5 9.54 5 -1 5 C-0.67 3.35 -0.34 1.7 0 0 Z " fill="#FFFFFF" transform="translate(58,32)"/>
</svg>
