<?xml version="1.0" encoding="UTF-8"?>
<svg version="1.1" xmlns="http://www.w3.org/2000/svg" width="128" height="128">
<path d="M0 0 C1.3880979 -0.00015521 2.77619622 -0.00164777 4.16429138 -0.00440979 C7.06341883 -0.00578917 9.96204877 0.00668729 12.86108398 0.02954102 C16.56546045 0.05795162 20.26901295 0.05517529 23.97345066 0.0424509 C26.83634911 0.03547631 29.69905914 0.04330271 32.56193352 0.05570793 C33.92739068 0.06020332 35.2928682 0.06057605 36.6583271 0.05664253 C38.56985966 0.05371244 40.48138774 0.07246115 42.39282227 0.09204102 C44.01994896 0.10014549 44.01994896 0.10014549 45.6799469 0.1084137 C50.40499065 0.70584275 53.68941759 2.41006548 56.99609375 5.80859375 C60.6330534 11.39392465 61.05453324 16.60908422 61.046875 23.0703125 C61.05116013 23.87596146 61.05544525 24.68161041 61.05986023 25.51167297 C61.06557707 27.20511946 61.06612341 28.89859048 61.06176758 30.59204102 C61.05859064 33.18613046 61.08215692 35.77909677 61.10742188 38.37304688 C61.10969341 40.02213398 61.11039904 41.67122415 61.109375 43.3203125 C61.11858475 44.09533615 61.12779449 44.8703598 61.13728333 45.66886902 C61.09139302 50.98209094 61.09139302 50.98209094 59.41088867 53.48364258 C56.78069099 55.083207 54.74424931 54.8708632 51.74609375 54.49609375 C50.09057617 53.49682617 50.09057617 53.49682617 48.74609375 51.49609375 C48.41488833 48.63343915 48.25745283 45.97642771 48.234375 43.109375 C48.2074482 41.88386177 48.2074482 41.88386177 48.17997742 40.6335907 C48.12581587 38.02531081 48.09196067 35.4172145 48.05859375 32.80859375 C48.02542576 31.03968796 47.99093658 29.27080642 47.95507812 27.50195312 C47.87008629 23.16679902 47.8033034 18.83169991 47.74609375 14.49609375 C42.11333678 12.10347592 36.87737847 12.22247327 30.87109375 12.265625 C29.30705811 12.26631233 29.30705811 12.26631233 27.71142578 12.26701355 C25.5126837 12.27002691 23.31394357 12.27788568 21.11523438 12.2902832 C17.75773517 12.30853048 14.40051237 12.31079274 11.04296875 12.31054688 C8.90234138 12.31546309 6.76171586 12.32129186 4.62109375 12.328125 C3.62094238 12.32923782 2.62079102 12.33035065 1.59033203 12.33149719 C-5.39140436 12.34135769 -5.39140436 12.34135769 -12.25390625 13.49609375 C-13.73778507 16.46385138 -13.40990112 19.48928899 -13.41503906 22.74389648 C-13.42000397 23.49039459 -13.42496887 24.2368927 -13.43008423 25.00601196 C-13.44471434 27.48057977 -13.45150871 29.95508351 -13.45703125 32.4296875 C-13.46278134 34.14600121 -13.46853909 35.86231489 -13.4743042 37.57862854 C-13.48481615 41.17913106 -13.49065776 44.77961124 -13.49414062 48.38012695 C-13.49963038 52.99843477 -13.52366772 57.6164485 -13.55211258 62.23466396 C-13.57071505 65.78022634 -13.57594324 69.32571748 -13.5774765 72.87132454 C-13.58050822 74.57421542 -13.58855418 76.27710491 -13.60166168 77.97994804 C-13.61867509 80.35982687 -13.61685397 82.73898189 -13.61035156 85.11889648 C-13.62417374 86.17801491 -13.62417374 86.17801491 -13.63827515 87.25852966 C-13.61362096 90.13214717 -13.57239914 92.04264751 -11.89337158 94.43312073 C-9.46306619 96.00884729 -7.47260814 95.8822136 -4.59765625 95.90234375 C-3.49292969 95.92425781 -2.38820313 95.94617188 -1.25 95.96875 C-0.09628906 95.97777344 1.05742188 95.98679687 2.24609375 95.99609375 C4.527488 96.01393706 6.80882846 96.04459607 9.08984375 96.08984375 C10.10240234 96.09693359 11.11496094 96.10402344 12.15820312 96.11132812 C14.74609375 96.49609375 14.74609375 96.49609375 16.58007812 97.83007812 C18.37038296 100.38808487 18.06825379 102.46778935 17.74609375 105.49609375 C14.32739842 108.91478908 9.46223288 107.83428545 4.84375 107.8671875 C4.12977051 107.86702637 3.41579102 107.86686523 2.68017578 107.86669922 C0.51774022 107.8710502 -1.64261637 107.90729481 -3.8046875 107.9453125 C-5.18879514 107.95118535 -6.57291243 107.95515161 -7.95703125 107.95703125 C-9.83890137 107.96935791 -9.83890137 107.96935791 -11.75878906 107.98193359 C-17.11763622 107.23702539 -20.00994313 105.01606683 -23.3961792 100.87849426 C-25.62318018 96.82374938 -25.81875659 93.53628936 -25.77148438 89.03149414 C-25.77849365 88.20305496 -25.78550293 87.37461578 -25.79272461 86.52107239 C-25.81026404 83.79495265 -25.79869547 81.06987948 -25.78515625 78.34375 C-25.78785259 76.44095156 -25.7917362 74.53815446 -25.79675293 72.63536072 C-25.8026427 68.65171156 -25.79410276 64.66842176 -25.77539062 60.68481445 C-25.75261695 55.58930586 -25.76571744 50.49464081 -25.78968048 45.39916325 C-25.80416579 41.47079668 -25.79951968 37.54262859 -25.78916931 33.61425591 C-25.78650877 31.73605689 -25.78974803 29.85783962 -25.79908752 27.97966194 C-25.80929653 25.34932175 -25.7936914 22.72032831 -25.77148438 20.09008789 C-25.7795813 19.32051758 -25.78767822 18.55094727 -25.79602051 17.75805664 C-25.71034027 12.25405792 -24.38735875 9.0411737 -21.25390625 4.49609375 C-14.95688333 -0.80403048 -7.89352458 -0.07202815 0 0 Z " fill="#FFFFFF" transform="translate(41.25390625,4.50390625)"/>
<path d="M0 0 C2 2 2 2 2.1953125 5.2578125 C2.17210938 6.53398438 2.14890625 7.81015625 2.125 9.125 C2.10695313 10.40632813 2.08890625 11.68765625 2.0703125 13.0078125 C2.04710938 13.99523437 2.02390625 14.98265625 2 16 C2.98742187 15.97679688 3.97484375 15.95359375 4.9921875 15.9296875 C6.27351563 15.91164063 7.55484375 15.89359375 8.875 15.875 C10.78925781 15.84019531 10.78925781 15.84019531 12.7421875 15.8046875 C16 16 16 16 18 18 C18.25 21.5 18.25 21.5 18 25 C16 27 16 27 12.7421875 27.1953125 C11.46601562 27.17210938 10.18984375 27.14890625 8.875 27.125 C6.95300781 27.09792969 6.95300781 27.09792969 4.9921875 27.0703125 C4.00476563 27.04710938 3.01734375 27.02390625 2 27 C2.02320312 27.98742187 2.04640625 28.97484375 2.0703125 29.9921875 C2.09738281 31.91417969 2.09738281 31.91417969 2.125 33.875 C2.14820312 35.15117188 2.17140625 36.42734375 2.1953125 37.7421875 C2 41 2 41 0 43 C-3.5 43.25 -3.5 43.25 -7 43 C-9 41 -9 41 -9.1953125 37.7421875 C-9.17210938 36.46601562 -9.14890625 35.18984375 -9.125 33.875 C-9.10695313 32.59367187 -9.08890625 31.31234375 -9.0703125 29.9921875 C-9.04710938 29.00476563 -9.02390625 28.01734375 -9 27 C-9.98742187 27.02320312 -10.97484375 27.04640625 -11.9921875 27.0703125 C-13.27351563 27.08835937 -14.55484375 27.10640625 -15.875 27.125 C-17.15117188 27.14820312 -18.42734375 27.17140625 -19.7421875 27.1953125 C-23 27 -23 27 -25 25 C-25.549208 19.83744482 -25.549208 19.83744482 -23.8984375 17.3203125 C-21.06285955 15.34824388 -18.71603691 15.71140484 -15.3125 15.8125 C-13.54326172 15.85310547 -13.54326172 15.85310547 -11.73828125 15.89453125 C-10.83464844 15.92933594 -9.93101563 15.96414062 -9 16 C-9.03480469 15.09636719 -9.06960937 14.19273438 -9.10546875 13.26171875 C-9.13253906 12.08222656 -9.15960938 10.90273437 -9.1875 9.6875 C-9.23970703 7.92986328 -9.23970703 7.92986328 -9.29296875 6.13671875 C-9 3 -9 3 -7.6796875 1.1015625 C-5.09770424 -0.59173815 -3.00157241 -0.31931621 0 0 Z " fill="#FFFFFF" transform="translate(94,69)"/>
<path d="M0 0 C0.8098938 -0.0004985 1.6197876 -0.00099701 2.45422363 -0.00151062 C4.1656337 0.00082867 5.87704728 0.0105487 7.58837891 0.02709961 C10.20897158 0.05069321 12.82854685 0.04765958 15.44921875 0.04101562 C17.11198524 0.04659249 18.77474744 0.05370242 20.4375 0.0625 C21.22193481 0.06158859 22.00636963 0.06067719 22.8145752 0.05973816 C26.63714646 0.10959298 28.46349967 0.19311437 31.71875 2.36328125 C32.1171875 4.23828125 32.1171875 4.23828125 32.09375 6.36328125 C32.10535156 7.41515625 32.10535156 7.41515625 32.1171875 8.48828125 C31.71875 10.36328125 31.71875 10.36328125 28.71875 12.36328125 C26.00809498 12.5711394 23.4026903 12.66731639 20.69140625 12.6640625 C19.90608017 12.66834763 19.12075409 12.67263275 18.31163025 12.67704773 C16.65152958 12.68278767 14.99140375 12.68329375 13.33129883 12.67895508 C10.79399601 12.67579711 8.25786161 12.6992501 5.72070312 12.72460938 C4.1067723 12.72688264 2.49283835 12.72758574 0.87890625 12.7265625 C-0.25719337 12.74037712 -0.25719337 12.74037712 -1.41624451 12.75447083 C-4.61577922 12.72643157 -6.92103396 12.55700939 -9.76391602 11.02807617 C-11.28125 9.36328125 -11.28125 9.36328125 -11.71875 6.36328125 C-11.28125 3.36328125 -11.28125 3.36328125 -10.27148438 1.69848633 C-7.09842262 -0.43025198 -3.69180455 -0.04334406 0 0 Z " fill="#FFFFFF" transform="translate(48.28125,25.63671875)"/>
<path d="M0 0 C1.25472107 0.00607269 1.25472107 0.00607269 2.53479004 0.01226807 C3.39286255 0.01035461 4.25093506 0.00844116 5.13500977 0.00646973 C6.95072726 0.00510763 8.76645449 0.00880579 10.58215332 0.01715088 C13.36736854 0.02785015 16.15193872 0.01725653 18.93713379 0.00445557 C20.69885397 0.00577716 22.46057374 0.00833954 24.22229004 0.01226807 C25.05877075 0.0082196 25.89525146 0.00417114 26.75708008 0 C32.6486217 0.04797473 32.6486217 0.04797473 34.87854004 2.27789307 C35.12854004 5.77789307 35.12854004 5.77789307 34.87854004 9.27789307 C32.28397001 11.87246309 30.47166228 11.53654709 26.93519592 11.58143616 C25.7179911 11.58006905 25.7179911 11.58006905 24.47619629 11.57867432 C23.6426915 11.58295944 22.80918671 11.58724457 21.95042419 11.59165955 C20.18599354 11.59740741 18.42153919 11.59789975 16.65710449 11.59356689 C13.95511471 11.59040951 11.25422226 11.61385051 8.55236816 11.63922119 C6.83947892 11.64149438 5.12658673 11.64219759 3.41369629 11.64117432 C2.19952782 11.65498894 2.19952782 11.65498894 0.96083069 11.66908264 C-4.6769788 11.62251531 -4.6769788 11.62251531 -6.83924866 9.94602966 C-8.78781344 7.41097774 -8.45054216 5.37126575 -8.12145996 2.27789307 C-5.48960727 -0.35395963 -3.58277127 0.02917445 0 0 Z " fill="#FFFFFF" transform="translate(45.1214599609375,47.72210693359375)"/>
<path d="M0 0 C1.08667969 -0.01740234 1.08667969 -0.01740234 2.1953125 -0.03515625 C7.43328434 -0.00616379 7.43328434 -0.00616379 9.98046875 1.70703125 C11.56365654 4.29715074 11.3144376 6.41928658 11 9.375 C8.63431778 11.74068222 8.14767774 11.63071704 4.9375 11.640625 C3.74253906 11.64449219 3.74253906 11.64449219 2.5234375 11.6484375 C1.69070312 11.64070313 0.85796875 11.63296875 0 11.625 C-0.83273438 11.63273437 -1.66546875 11.64046875 -2.5234375 11.6484375 C-3.32007813 11.64585938 -4.11671875 11.64328125 -4.9375 11.640625 C-5.66839844 11.63836914 -6.39929687 11.63611328 -7.15234375 11.63378906 C-9 11.375 -9 11.375 -11 9.375 C-11.54367449 4.2644598 -11.54367449 4.2644598 -9.98046875 1.70703125 C-6.87319803 -0.38286878 -3.61275107 -0.05785544 0 0 Z " fill="#FFFFFF" transform="translate(48,68.625)"/>
</svg>
