<?xml version="1.0" encoding="UTF-8"?>
<svg version="1.1" xmlns="http://www.w3.org/2000/svg" width="128" height="128">
<path d="M0 0 C4.83022055 3.12398224 10.66931652 7.24097679 13.2890625 12.48046875 C13.9490625 12.48046875 14.6090625 12.48046875 15.2890625 12.48046875 C16.33403608 11.31081082 17.3251585 10.09278783 18.2890625 8.85546875 C22.85735684 3.46354063 29.14393522 -1.35813247 36.2890625 -2.51953125 C48.21310216 -3.26862128 56.99701102 -3.03821583 66.5390625 4.79296875 C74.6064146 12.3470897 78.2884904 19.90690281 78.69384766 30.97924805 C78.9353 48.51697676 71.47069671 59.37790725 59.75 71.9609375 C56.42735236 75.3626958 52.94411135 78.4441629 49.2890625 81.48046875 C48.33386719 82.3003125 47.37867187 83.12015625 46.39453125 83.96484375 C39.531552 89.85207399 32.51981159 95.51908045 25.3828125 101.0703125 C22.32013086 103.39064693 22.32013086 103.39064693 19.7578125 105.796875 C16.63831985 107.92425053 14.99677447 108.0388296 11.2890625 107.48046875 C9.11328125 106.22265625 9.11328125 106.22265625 6.9765625 104.35546875 C6.12449219 103.62972656 5.27242187 102.90398437 4.39453125 102.15625 C3.91290527 101.73811035 3.4312793 101.3199707 2.93505859 100.88916016 C1.05249957 99.2780113 -0.86290552 97.71200979 -2.78515625 96.1484375 C-9.86245255 90.38926002 -16.87151316 84.59541599 -23.5859375 78.4140625 C-25.60180062 76.57977529 -27.67672912 74.84590051 -29.7734375 73.10546875 C-38.86027634 65.12006492 -47.12624081 54.53202338 -49.7109375 42.48046875 C-50.50937301 29.27356005 -50.3481537 18.51416093 -41.3359375 8.04296875 C-30.71689289 -2.92367143 -14.25454787 -6.78438103 0 0 Z M-35.484375 18.5390625 C-39.70794447 25.22413902 -39.39614876 32.86605867 -38.7109375 40.48046875 C-35.23913451 53.75616994 -22.87115697 64.99369719 -12.7109375 73.48046875 C-11.6957964 74.3453948 -10.6815389 75.21135854 -9.66796875 76.078125 C-6.3648909 78.89806463 -3.04253108 81.69430405 0.2890625 84.48046875 C1.24039063 85.27710937 2.19171875 86.07375 3.171875 86.89453125 C4.03554688 87.60351562 4.89921875 88.3125 5.7890625 89.04296875 C6.541875 89.66300781 7.2946875 90.28304687 8.0703125 90.921875 C11.41611099 93.29256995 11.41611099 93.29256995 15.2890625 94.48046875 C17.73508643 93.06152205 19.55380412 91.74366426 21.6640625 89.91796875 C22.26839111 89.4185376 22.87271973 88.91910645 23.49536133 88.40454102 C25.44419923 86.78288942 27.36773548 85.134585 29.2890625 83.48046875 C30.57676588 82.3866516 31.86452604 81.29290129 33.15234375 80.19921875 C36.31578723 77.49643965 39.44459096 74.75675774 42.56103516 72 C44.14944755 70.60323838 45.75296721 69.22684658 47.36328125 67.85546875 C56.73359776 59.70054894 66.40018066 50.06443833 67.59375 37.1953125 C67.85822768 29.92217627 67.61825747 23.54134171 63.2890625 17.48046875 C59.04851785 12.9618556 54.6627609 8.86424926 48.3359375 8.14453125 C40.18124974 8.04791173 34.5956848 8.56954038 28.4609375 14.140625 C23.62201466 19.26357157 20.43210988 25.21739998 17.2890625 31.48046875 C15.3090625 31.48046875 13.3290625 31.48046875 11.2890625 31.48046875 C10.804375 30.55105469 10.3196875 29.62164062 9.8203125 28.6640625 C5.07299636 19.81260727 0.39971838 11.73669469 -9.7109375 8.48046875 C-21.41228412 7.05712953 -27.95137085 9.80666942 -35.484375 18.5390625 Z " fill="#FFFFFF" transform="translate(49.7109375,11.51953125)"/>
</svg>
