<?xml version="1.0" encoding="UTF-8"?>
<svg version="1.1" xmlns="http://www.w3.org/2000/svg" width="128" height="128">
<path d="M0 0 C1.8569751 -0.00472824 1.8569751 -0.00472824 3.75146484 -0.009552 C5.11295609 -0.00776222 6.47444701 -0.00571127 7.8359375 -0.00341797 C9.22216814 -0.00409106 10.60839867 -0.00506113 11.99462891 -0.00631714 C14.90333172 -0.00779387 17.81200387 -0.00564037 20.72070312 -0.00097656 C24.45690348 0.00472073 28.19303202 0.00144159 31.92922974 -0.00454903 C34.79273016 -0.00815532 37.65621343 -0.00701574 40.51971436 -0.00442123 C41.89768482 -0.00375215 43.27565682 -0.00457973 44.65362549 -0.00690079 C46.57637504 -0.00942839 48.49913002 -0.0048957 50.421875 0 C52.06615479 0.00119339 52.06615479 0.00119339 53.74365234 0.00241089 C56.2109375 0.12939453 56.2109375 0.12939453 57.2109375 1.12939453 C57.3359375 4.12939453 57.3359375 4.12939453 57.2109375 7.12939453 C55.43177283 8.9085592 52.82780451 8.25704288 50.421875 8.25878906 C49.1838916 8.26194122 47.9459082 8.26509338 46.67041016 8.26834106 C45.30891891 8.26655128 43.94742799 8.26450033 42.5859375 8.26220703 C41.19970686 8.26288012 39.81347633 8.26385019 38.42724609 8.2651062 C35.51854328 8.26658293 32.60987113 8.26442943 29.70117188 8.25976562 C25.96497152 8.25406834 22.22884298 8.25734748 18.49264526 8.26333809 C15.62914484 8.26694438 12.76566157 8.2658048 9.90216064 8.2632103 C8.52419018 8.26254122 7.14621818 8.2633688 5.76824951 8.26568985 C3.84549996 8.26821745 1.92274498 8.26368477 0 8.25878906 C-1.64427979 8.25759567 -1.64427979 8.25759567 -3.32177734 8.25637817 C-5.7890625 8.12939453 -5.7890625 8.12939453 -6.7890625 7.12939453 C-6.9140625 4.12939453 -6.9140625 4.12939453 -6.7890625 1.12939453 C-5.00989783 -0.64977014 -2.40592951 0.00174618 0 0 Z " fill="#FFFFFF" transform="translate(66.7890625,95.87060546875)"/>
<path d="M0 0 C1.8569751 -0.00472824 1.8569751 -0.00472824 3.75146484 -0.009552 C5.11295609 -0.00776222 6.47444701 -0.00571127 7.8359375 -0.00341797 C9.22216814 -0.00409106 10.60839867 -0.00506113 11.99462891 -0.00631714 C14.90333172 -0.00779387 17.81200387 -0.00564037 20.72070312 -0.00097656 C24.45690348 0.00472073 28.19303202 0.00144159 31.92922974 -0.00454903 C34.79273016 -0.00815532 37.65621343 -0.00701574 40.51971436 -0.00442123 C41.89768482 -0.00375215 43.27565682 -0.00457973 44.65362549 -0.00690079 C46.57637504 -0.00942839 48.49913002 -0.0048957 50.421875 0 C52.06615479 0.00119339 52.06615479 0.00119339 53.74365234 0.00241089 C56.2109375 0.12939453 56.2109375 0.12939453 57.2109375 1.12939453 C57.3359375 4.12939453 57.3359375 4.12939453 57.2109375 7.12939453 C55.43177283 8.9085592 52.82780451 8.25704288 50.421875 8.25878906 C49.1838916 8.26194122 47.9459082 8.26509338 46.67041016 8.26834106 C45.30891891 8.26655128 43.94742799 8.26450033 42.5859375 8.26220703 C41.19970686 8.26288012 39.81347633 8.26385019 38.42724609 8.2651062 C35.51854328 8.26658293 32.60987113 8.26442943 29.70117188 8.25976562 C25.96497152 8.25406834 22.22884298 8.25734748 18.49264526 8.26333809 C15.62914484 8.26694438 12.76566157 8.2658048 9.90216064 8.2632103 C8.52419018 8.26254122 7.14621818 8.2633688 5.76824951 8.26568985 C3.84549996 8.26821745 1.92274498 8.26368477 0 8.25878906 C-1.64427979 8.25759567 -1.64427979 8.25759567 -3.32177734 8.25637817 C-5.7890625 8.12939453 -5.7890625 8.12939453 -6.7890625 7.12939453 C-6.9140625 4.12939453 -6.9140625 4.12939453 -6.7890625 1.12939453 C-5.00989783 -0.64977014 -2.40592951 0.00174618 0 0 Z " fill="#FFFFFF" transform="translate(66.7890625,59.87060546875)"/>
<path d="M0 0 C1.8569751 -0.00472824 1.8569751 -0.00472824 3.75146484 -0.009552 C5.11295609 -0.00776222 6.47444701 -0.00571127 7.8359375 -0.00341797 C9.22216814 -0.00409106 10.60839867 -0.00506113 11.99462891 -0.00631714 C14.90333172 -0.00779387 17.81200387 -0.00564037 20.72070312 -0.00097656 C24.45690348 0.00472073 28.19303202 0.00144159 31.92922974 -0.00454903 C34.79273016 -0.00815532 37.65621343 -0.00701574 40.51971436 -0.00442123 C41.89768482 -0.00375215 43.27565682 -0.00457973 44.65362549 -0.00690079 C46.57637504 -0.00942839 48.49913002 -0.0048957 50.421875 0 C52.06615479 0.00119339 52.06615479 0.00119339 53.74365234 0.00241089 C56.2109375 0.12939453 56.2109375 0.12939453 57.2109375 1.12939453 C57.3359375 4.12939453 57.3359375 4.12939453 57.2109375 7.12939453 C55.43177283 8.9085592 52.82780451 8.25704288 50.421875 8.25878906 C49.1838916 8.26194122 47.9459082 8.26509338 46.67041016 8.26834106 C45.30891891 8.26655128 43.94742799 8.26450033 42.5859375 8.26220703 C41.19970686 8.26288012 39.81347633 8.26385019 38.42724609 8.2651062 C35.51854328 8.26658293 32.60987113 8.26442943 29.70117188 8.25976562 C25.96497152 8.25406834 22.22884298 8.25734748 18.49264526 8.26333809 C15.62914484 8.26694438 12.76566157 8.2658048 9.90216064 8.2632103 C8.52419018 8.26254122 7.14621818 8.2633688 5.76824951 8.26568985 C3.84549996 8.26821745 1.92274498 8.26368477 0 8.25878906 C-1.64427979 8.25759567 -1.64427979 8.25759567 -3.32177734 8.25637817 C-5.7890625 8.12939453 -5.7890625 8.12939453 -6.7890625 7.12939453 C-6.9140625 4.12939453 -6.9140625 4.12939453 -6.7890625 1.12939453 C-5.00989783 -0.64977014 -2.40592951 0.00174618 0 0 Z " fill="#FFFFFF" transform="translate(66.7890625,23.87060546875)"/>
<path d="M0 0 C0.66 1.65 1.32 3.3 2 5 C-2.52166055 9.99963735 -7.86078072 13.57027856 -13.4375 17.3125 C-14.36626953 17.95767578 -15.29503906 18.60285156 -16.25195312 19.26757812 C-17.15751953 19.87666016 -18.06308594 20.48574219 -18.99609375 21.11328125 C-20.22090454 21.94533081 -20.22090454 21.94533081 -21.47045898 22.79418945 C-24.49004787 24.23360162 -26.6945697 24.22192359 -30 24 C-31.20570907 21.9463858 -32.38906641 19.88444845 -33.5625 17.8125 C-33.90474609 17.23435547 -34.24699219 16.65621094 -34.59960938 16.06054688 C-36.18790326 13.22086993 -37.03256104 11.41872353 -36.77734375 8.13671875 C-36 6 -36 6 -35 5 C-32.6875 4.625 -32.6875 4.625 -30 5 C-27.8125 7.375 -27.8125 7.375 -26 10 C-25.34 10.66 -24.68 11.32 -24 12 C-23.48614746 11.63648437 -22.97229492 11.27296875 -22.44287109 10.8984375 C-20.09681855 9.25097319 -17.73633398 7.62547642 -15.375 6 C-14.56675781 5.42765625 -13.75851563 4.8553125 -12.92578125 4.265625 C-5.4418697 -0.84533898 -5.4418697 -0.84533898 0 0 Z " fill="#FFFFFF" transform="translate(47,84)"/>
<path d="M0 0 C0.66 1.65 1.32 3.3 2 5 C-2.52166055 9.99963735 -7.86078072 13.57027856 -13.4375 17.3125 C-14.36626953 17.95767578 -15.29503906 18.60285156 -16.25195312 19.26757812 C-17.15751953 19.87666016 -18.06308594 20.48574219 -18.99609375 21.11328125 C-20.22090454 21.94533081 -20.22090454 21.94533081 -21.47045898 22.79418945 C-24.49004787 24.23360162 -26.6945697 24.22192359 -30 24 C-31.20570907 21.9463858 -32.38906641 19.88444845 -33.5625 17.8125 C-33.90474609 17.23435547 -34.24699219 16.65621094 -34.59960938 16.06054688 C-36.18790326 13.22086993 -37.03256104 11.41872353 -36.77734375 8.13671875 C-36 6 -36 6 -35 5 C-32.6875 4.625 -32.6875 4.625 -30 5 C-27.8125 7.375 -27.8125 7.375 -26 10 C-25.34 10.66 -24.68 11.32 -24 12 C-23.48614746 11.63648438 -22.97229492 11.27296875 -22.44287109 10.8984375 C-20.09681855 9.25097319 -17.73633398 7.62547642 -15.375 6 C-14.56675781 5.42765625 -13.75851563 4.8553125 -12.92578125 4.265625 C-5.4418697 -0.84533898 -5.4418697 -0.84533898 0 0 Z " fill="#FFFFFF" transform="translate(47,52)"/>
<path d="M0 0 C1 1 1 1 1.3515625 3.82421875 C1 7 1 7 -0.9140625 9.01953125 C-1.80867188 9.61121094 -2.70328125 10.20289063 -3.625 10.8125 C-4.62144531 11.47894531 -5.61789063 12.14539063 -6.64453125 12.83203125 C-8.30548828 13.90517578 -8.30548828 13.90517578 -10 15 C-11.21419148 15.83440636 -12.42638885 16.67172086 -13.63671875 17.51171875 C-14.86089543 18.34274452 -16.08614037 19.17219904 -17.3125 20 C-17.88629395 20.39807861 -18.46008789 20.79615723 -19.05126953 21.20629883 C-22.8505277 23.69753454 -25.47877424 24.43775862 -30 24 C-31.20570907 21.9463858 -32.38906641 19.88444845 -33.5625 17.8125 C-33.90474609 17.23435547 -34.24699219 16.65621094 -34.59960938 16.06054688 C-36.18790326 13.22086993 -37.03256104 11.41872353 -36.77734375 8.13671875 C-36 6 -36 6 -35 5 C-32.6875 4.5625 -32.6875 4.5625 -30 5 C-26 9.97297297 -26 9.97297297 -26 13 C-25.13834229 12.40928711 -25.13834229 12.40928711 -24.25927734 11.80664062 C-21.64070801 10.02329097 -19.0082446 8.26160035 -16.375 6.5 C-15.47136719 5.87996094 -14.56773438 5.25992187 -13.63671875 4.62109375 C-12.75371094 4.03457031 -11.87070312 3.44804687 -10.9609375 2.84375 C-9.75123291 2.02680664 -9.75123291 2.02680664 -8.51708984 1.19335938 C-5.48288361 -0.24516633 -3.32007462 -0.28977767 0 0 Z " fill="#FFFFFF" transform="translate(47,20)"/>
</svg>
