<?xml version="1.0" encoding="UTF-8"?>
<svg version="1.1" xmlns="http://www.w3.org/2000/svg" width="64" height="64">
<path d="M0 0 C3.35532741 1.3816054 6.59370867 1.44206868 10.125 0.875 C12.16358123 -0.07191652 12.16358123 -0.07191652 14.125 -1.25 C17.16790358 -2.93318092 18.94326348 -3.39291251 22.375 -2.6875 C26.25931585 -1.35725484 28.07564972 0.23171061 30.125 3.875 C33.12774743 11.31037459 34.73400663 18.66093502 31.8125 26.3125 C30.125 28.875 30.125 28.875 27.125 30.875 C25.20339966 31.14242554 25.20339966 31.14242554 23.00830078 31.16552734 C22.18379425 31.17828705 21.35928772 31.19104675 20.50979614 31.20419312 C19.17850174 31.20753159 19.17850174 31.20753159 17.8203125 31.2109375 C16.44611649 31.2209227 16.44611649 31.2209227 15.04415894 31.23110962 C13.10579435 31.24123545 11.16739491 31.24592666 9.22900391 31.24560547 C6.26796767 31.24997349 3.30842821 31.28627909 0.34765625 31.32421875 C-1.53645324 31.330088 -3.42056981 31.33405667 -5.3046875 31.3359375 C-6.18816864 31.35030853 -7.07164978 31.36467957 -7.98190308 31.37948608 C-12.14160939 31.34867793 -14.31139753 31.22846406 -17.91064453 28.97119141 C-22.00469819 24.60236905 -21.34203531 19.5078233 -21.2109375 13.796875 C-20.74172726 8.31911824 -19.46463484 4.09606459 -15.875 -0.125 C-10.33841165 -4.03585502 -5.71333188 -3.42799913 0 0 Z M-13.875 5.875 C-15.86417885 9.08175451 -16.39418338 12.08525188 -16.8125 15.8125 C-16.94527344 16.83214844 -17.07804687 17.85179687 -17.21484375 18.90234375 C-17.11479909 22.03044955 -17.11479909 22.03044955 -14.85180664 24.52148438 C-11.17034656 27.43211139 -8.41050253 27.5863798 -3.90625 27.50390625 C-3.14832153 27.50631821 -2.39039307 27.50873016 -1.60949707 27.51121521 C-0.01256052 27.51023896 1.58441079 27.49689809 3.18115234 27.47192383 C5.61803765 27.43759807 8.05129609 27.4512761 10.48828125 27.47070312 C12.04428618 27.46380424 13.60028181 27.45413145 15.15625 27.44140625 C15.88034058 27.44636612 16.60443115 27.45132599 17.35046387 27.45643616 C22.1909019 27.34440217 24.75422183 26.35999395 28.125 22.875 C29.71273028 16.73299074 27.92106357 10.37071116 25.125 4.875 C22.91021153 2.61046092 22.91021153 2.61046092 20.125 1.875 C17.55385788 2.48641128 17.55385788 2.48641128 15.125 3.875 C10.51195321 6.18152339 6.1955006 6.59935723 1.125 5.875 C-1.12983327 4.98999718 -3.15405052 3.96718879 -5.24609375 2.75 C-9.08287672 0.68899428 -10.99480188 3.28282169 -13.875 5.875 Z " fill="#FFFFFF" transform="translate(20.875,33.125)"/>
<path d="M0 0 C4.881441 2.26638332 7.70028068 5.13520912 10 10 C10.77379561 15.29813119 10.67768515 19.56643525 8.375 24.4375 C4.04565669 29.10863357 0.92123974 31.23861982 -5.5 31.5 C-11.77639023 31.25303213 -14.87370395 29.06882859 -19.3125 24.75 C-22.22359267 20.00599714 -22.21803906 15.7754609 -21.5625 10.4375 C-17.20762468 0.8567743 -10.12695211 -1.7829141 0 0 Z M-13 7 C-13.5775 7.391875 -14.155 7.78375 -14.75 8.1875 C-16.83465462 11.2102492 -17.210109 14.42136931 -17 18 C-15.14251695 22.10194175 -13.54053666 23.67363824 -9.6875 26 C-5.22359994 27.21054917 -3.19284724 26.89864781 1 25 C3.60710075 22.79399167 4.78279996 21.23378582 5.37890625 17.84765625 C5.58395662 13.87232491 5.32090827 11.55861811 3.3125 8.0625 C-2.1087509 3.22733028 -7.02542816 2.86375796 -13 7 Z " fill="#FFFFFF" transform="translate(32,0)"/>
</svg>
